<?xml version="1.0" encoding="UTF-8"?>
<svg width="125px" height="121px" viewBox="0 0 125 121" version="1.1" xmlns="http://www.w3.org/2000/svg" xmlns:xlink="http://www.w3.org/1999/xlink">
    <!-- Generator: Sketch 53.2 (72643) - https://sketchapp.com -->
    <title>Group 28</title>
    <desc>Created with Sketch.</desc>
    <g id="Page-1" stroke="none" stroke-width="1" fill="none" fill-rule="evenodd">
        <g id="TutorEye---Landing-Page-2" transform="translate(-931.000000, -3026.000000)">
            <g id="Group-37" transform="translate(-18.000000, 1006.000000)">
                <g id="Group-12" transform="translate(176.000000, 1407.000000)">
                    <g id="Group-36" transform="translate(771.000000, 613.000000)">
                        <g id="Group-6">
                            <g id="Group-5" transform="translate(2.000000, 0.000000)">
                                <g id="Group-28">
                                    <path d="M41.2606116,121 C79.998558,121 125,97.3548173 125,58.5588779 C125,19.7629384 95.5450579,0 56.8071115,0 C18.0691651,0 0,19.7629384 0,58.5588779 C0,97.3548173 2.52266516,121 41.2606116,121 Z" id="Oval-Copy-4" fill="#F06D22"></path>
                                    <g id="24-hours-support" transform="translate(32.000000, 30.000000)" fill="#FFFBDD" fill-rule="nonzero">
                                        <path d="M36.6408968,0.119797834 C30.182306,0.119797834 24.2834804,2.55319134 19.8130819,6.54814079 C20.8046406,8.12180866 21.3679359,9.95268953 21.4208897,11.8425884 L21.4211103,11.8480939 L21.421331,11.8535993 C21.4438363,12.7051769 21.4948043,13.5569747 21.5678363,14.4074513 C24.9586406,9.75713718 30.4503843,6.72629603 36.6408968,6.72629603 C46.9163488,6.72629603 55.2759786,15.0698628 55.2759786,25.3255704 C55.2759786,35.4731516 47.0906548,43.7431661 36.9641352,43.9166968 C37.8888399,44.6878953 38.8435516,45.4229783 39.8271673,46.1131372 L39.8315801,46.1164404 L39.8362135,46.1195235 C41.1755018,47.062491 42.2663488,48.298787 43.0317509,49.7127978 C53.872484,46.8805921 61.8949751,37.0210542 61.8949751,25.3255704 C61.8951957,11.4270397 50.5664057,0.119797834 36.6408968,0.119797834 Z" id="Path"></path>
                                        <path d="M36.0208968,51.5179134 C33.1358007,49.2192924 31.3358149,47.6885668 28.7598363,45.3069242 C28.0019359,44.6061949 27.0756868,44.1697256 26.1245053,44.1697256 C25.3966121,44.1697256 24.6777651,44.4011733 24.0860071,44.88587 C23.475274,45.3989747 22.8645409,45.9120794 22.2535872,46.4249639 C17.289395,40.5368123 13.603153,33.6755235 11.436242,26.2903394 C12.202306,26.0665993 12.9685907,25.842639 13.7346548,25.6188989 C15.4229964,25.1029314 16.2173025,23.3039819 15.9695231,21.5006282 C15.4304982,17.5754874 15.1377082,15.6254693 14.8040996,12.0273502 C14.6331032,10.1830361 13.4032527,8.58096029 11.6405552,8.48516606 C11.365637,8.45851986 11.0909395,8.44530686 10.8184484,8.44530686 C4.26321708,8.44530686 -1.44431317,16.0286859 0.666996441,25.3059711 C3.2941637,36.7951119 8.98161566,47.3811444 17.1159715,55.9229061 C20.4480854,59.4146606 24.5301566,60.9958159 28.2168399,60.9958159 C32.1060712,60.9958159 35.5555658,59.2376065 37.2262562,56.1081083 C38.1218363,54.5897148 37.4713879,52.6736101 36.0208968,51.5179134 Z" id="Path"></path>
                                        <path d="M29.0462278,25.7919892 C27.3005196,27.4085993 26.1582633,28.6796895 25.555032,29.6772708 C25.1291957,30.3808628 24.8185338,31.1247545 24.63121,31.8882455 C24.5431744,32.247639 24.6241495,32.6206859 24.853395,32.9120325 C25.0824199,33.2029386 25.4261779,33.3698628 25.7968541,33.3698628 L34.1278007,33.3698628 C35.148484,33.3698628 35.9789751,32.5409675 35.9789751,31.5222455 C35.9789751,30.5035235 35.148484,29.6746282 34.1278007,29.6746282 L30.3656584,29.6746282 C30.3963274,29.6385126 30.427879,29.6023971 30.4600925,29.5660614 C30.7058861,29.2899097 31.3077936,28.7129422 32.2488256,27.8516751 C33.2357509,26.9476859 33.9020854,26.2707401 34.2857794,25.7820794 C34.8640783,25.0474368 35.2943274,24.3301913 35.5641708,23.6506029 C35.8393096,22.9580217 35.9789751,22.2196354 35.9789751,21.455704 C35.9789751,20.0850758 35.4816512,18.9216715 34.5009039,17.9972022 C33.5265552,17.0802202 32.1852811,16.6155632 30.5137082,16.6155632 C28.9948185,16.6155632 27.7047331,17.0123935 26.679637,17.7950433 C26.0611815,18.2676282 25.5850391,18.9223321 25.2642278,19.7415379 C25.0475587,20.2949422 25.1036014,20.928065 25.4142633,21.4347834 C25.7249253,21.941722 26.2641708,22.2797545 26.8565907,22.3387726 C26.9225623,22.3453791 26.9883132,22.3486823 27.0531815,22.3486823 C27.8869822,22.3486823 28.6305409,21.8195018 28.903694,21.0320072 C28.9893025,20.7851444 29.1024911,20.5889314 29.2406121,20.4484332 C29.5314164,20.1526823 29.9230534,20.0086606 30.4382491,20.0086606 C30.9618292,20.0086606 31.3530249,20.1447545 31.6336797,20.4246498 C31.9136726,20.7041047 32.0498078,21.1117256 32.0498078,21.6710758 C32.0498078,22.1905668 31.8638078,22.7322996 31.4971032,23.2817401 C31.3005125,23.569343 30.7129466,24.2421047 29.0462278,25.7919892 Z" id="Path"></path>
                                        <path d="M45.7244484,16.6155632 L44.3328683,16.6155632 C43.9363772,16.6155632 43.5661423,16.8106751 43.3424128,17.1374765 L36.9067687,26.5402852 C36.7190036,26.8146751 36.6197153,27.1355307 36.6197153,27.4678375 L36.6197153,28.9915162 C36.6197153,29.6515054 37.1578577,30.1886137 37.8191174,30.1886137 L43.1023559,30.1886137 L43.1023559,31.4630072 C43.1023559,32.5145415 43.9595445,33.370083 45.0131032,33.370083 C46.0666619,33.370083 46.9238505,32.5145415 46.9238505,31.4630072 L46.9238505,30.1886137 L47.1147046,30.1886137 C48.0936868,30.1886137 48.8901993,29.3936318 48.8901993,28.4165307 C48.8901993,27.4394296 48.0936868,26.6444477 47.1147046,26.6444477 L46.9238505,26.6444477 L46.9238505,17.8126606 C46.9238505,17.1526715 46.3857082,16.6155632 45.7244484,16.6155632 Z M43.1025765,26.6444477 L40.7311317,26.6444477 L43.1025765,23.1258267 L43.1025765,26.6444477 Z" id="Shape"></path>
                                    </g>
                                </g>
                            </g>
                        </g>
                    </g>
                </g>
            </g>
        </g>
    </g>
</svg>