<?xml version="1.0" encoding="UTF-8"?>
<svg width="125px" height="121px" viewBox="0 0 125 121" version="1.1" xmlns="http://www.w3.org/2000/svg" xmlns:xlink="http://www.w3.org/1999/xlink">
    <!-- Generator: Sketch 53.2 (72643) - https://sketchapp.com -->
    <title>Group 4</title>
    <desc>Created with Sketch.</desc>
    <g id="Page-1" stroke="none" stroke-width="1" fill="none" fill-rule="evenodd">
        <g id="TutorEye---Landing-Page-2" transform="translate(-164.000000, -2544.000000)">
            <g id="Group-37" transform="translate(-18.000000, 1006.000000)">
                <g id="Group-12" transform="translate(176.000000, 1407.000000)">
                    <g id="Group-25" transform="translate(4.000000, 131.000000)">
                        <g id="Group-4" transform="translate(2.000000, 0.000000)">
                            <path d="M41.2606116,121 C79.998558,121 125,97.3548173 125,58.5588779 C125,19.7629384 95.5450579,0 56.8071115,0 C18.0691651,0 0,19.7629384 0,58.5588779 C0,97.3548173 2.52266516,121 41.2606116,121 Z" id="Oval" fill="#F06D22"></path>
                            <g id="Group-10" transform="translate(34.000000, 29.000000)" fill="#FFFBDD" fill-rule="nonzero">
                                <g id="flaticon1574318575-svg" transform="translate(0.687226, 0.416066)">
                                    <polygon id="Path" points="17.3174769 25.1172076 16.1456246 27.6378473 18.489329 27.6378473"></polygon>
                                    <polygon id="Path" points="11.5135901 11.3592221 11.5135901 1.05579217 1.07056941 11.3592221"></polygon>
                                    <path d="M43.3235089,0 L15.1673458,0 L15.1673458,13.1616801 C15.1673458,14.1572348 14.3495103,14.9641384 13.3404679,14.9641384 L0,14.9641384 L0,59.4026701 C0,60.3982247 0.817835473,61.2051282 1.82687785,61.2051282 L43.3235089,61.2051282 C44.3325514,61.2051282 45.1503869,60.3982247 45.1503869,59.4026701 L45.1503869,1.80245815 C45.1503869,0.806903546 44.3325514,0 43.3235089,0 Z M27.9143149,25.7349932 C26.9052726,25.7349932 26.0874371,24.9280896 26.0874371,23.932535 C26.0874371,22.9374473 26.9052726,22.1300769 27.9143149,22.1300769 L29.2030684,22.1300769 L29.2030684,20.85855 C29.2030684,19.8629954 30.0209039,19.0560919 31.0299463,19.0560919 C32.0389887,19.0560919 32.8568241,19.8629954 32.8568241,20.85855 L32.8568241,22.1300769 L34.1455775,22.1300769 C35.15462,22.1300769 35.9724555,22.9374473 35.9724555,23.932535 C35.9724555,24.9280896 35.15462,25.7349932 34.1455775,25.7349932 L32.8568241,25.7349932 L32.8568241,27.006987 C32.8568241,28.0020746 32.0389887,28.8094451 31.0299463,28.8094451 C30.0209039,28.8094451 29.2030684,28.0020746 29.2030684,27.006987 L29.2030684,25.7349932 L27.9143149,25.7349932 Z M9.34405428,33.6200472 L15.6567218,20.0427742 L15.6581417,20.0432413 C15.8342035,19.6645383 16.1418383,19.3432711 16.5554889,19.156021 C17.4727142,18.7408953 18.5570087,19.1378096 18.9777585,20.0427742 L25.2904261,33.6200472 C25.7111759,34.5250119 25.3088843,35.5948129 24.391659,36.0099386 C24.1450778,36.1215416 23.8861912,36.1743078 23.6310909,36.1743078 C22.9391491,36.1743078 22.2770242,35.7843978 21.9693894,35.1231852 L20.1657025,31.2427636 L14.4692512,31.2427636 L12.665091,35.1231852 C12.3579295,35.7843978 11.6958045,36.1743078 11.0033894,36.1743078 C10.7487624,36.1743078 10.4898758,36.1215416 10.2428213,36.0099386 C9.32559616,35.5948129 8.92330447,34.5250119 9.34405428,33.6200472 Z M11.0048093,39.7521405 L34.1455775,39.7521405 C35.15462,39.7521405 35.9724555,40.559044 35.9724555,41.5545987 C35.9724555,42.5501532 35.15462,43.3570568 34.1455775,43.3570568 L11.0048093,43.3570568 C9.9957669,43.3570568 9.17793142,42.5501532 9.17793142,41.5545987 C9.17793142,40.559044 9.9957669,39.7521405 11.0048093,39.7521405 Z M11.0048093,45.2529067 L26.2649188,45.2529067 C27.2734878,45.2529067 28.0917966,46.0598102 28.0917966,47.0553647 C28.0917966,48.0509194 27.2734878,48.857823 26.2649188,48.857823 L11.0048093,48.857823 C9.9957669,48.857823 9.17793142,48.0509194 9.17793142,47.0553647 C9.17793142,46.0598102 9.9957669,45.2529067 11.0048093,45.2529067 Z" id="Shape"></path>
                                </g>
                            </g>
                        </g>
                    </g>
                </g>
            </g>
        </g>
    </g>
</svg>