<?xml version="1.0" encoding="UTF-8"?>
<svg width="122px" height="122px" viewBox="0 0 122 122" version="1.1" xmlns="http://www.w3.org/2000/svg" xmlns:xlink="http://www.w3.org/1999/xlink">
    <!-- Generator: Sketch 53.2 (72643) - https://sketchapp.com -->
    <title>Group Copy 4</title>
    <desc>Created with Sketch.</desc>
    <g id="Page-1" stroke="none" stroke-width="1" fill="none" fill-rule="evenodd">
        <g id="TutorEye---Landing-Page-2" transform="translate(-931.000000, -1065.000000)" fill-rule="nonzero">
            <g id="Group-3" transform="translate(160.000000, 711.000000)">
                <g id="Group-2">
                    <g id="Group-13" transform="translate(771.000000, 354.000000)">
                        <g id="Group-Copy-4">
                            <path d="M50.7964112,44.6882856 C54.5110141,44.6838623 58.1858765,45.4481444 61.5871816,46.932503 C63.0733778,44.6672789 64.5595739,42.4020548 66.0669009,40.147334 C61.3103877,37.8421596 56.0880254,36.6448101 50.7964112,36.6462148 C31.4863697,36.6500811 15.8340053,52.2121344 15.8320611,71.4088274 C15.8340057,90.6049539 31.4869394,106.166006 50.7964112,106.167939 C70.1064529,106.166006 85.7603939,90.6055201 85.764283,71.4088274 C85.7702218,66.098056 84.5471426,60.8571081 82.1896642,56.0914309 C79.9732833,57.6879412 77.7299019,59.240104 75.4595199,60.7479194 C76.9316243,64.1113855 77.6893643,67.7407745 77.6852924,71.4088274 C77.6814043,86.1703747 65.6451195,98.1360073 50.7964112,98.1398726 C35.9532004,98.1360126 23.919191,86.1789097 23.9075299,71.4228319 C23.9094739,56.6599174 35.9463279,44.6921515 50.7964112,44.6882856 Z M122,0 C109.842774,28.8527234 90.6032251,48.4169776 49.7610043,71.07272 C70.7297534,46.0012053 80.8971666,12.2539172 122,0 Z M102.827365,19.4172071 C97.8545947,26.6190094 86.2397249,39.296562 75.5968698,46.2042702 C81.5240456,39.2755553 93.0191744,24.2067382 102.827365,19.4172071 Z" id="Shape" fill="#5BBA47"></path>
                            <path d="M50.7557011,60.5931861 C51.196348,60.5934158 51.6365784,60.6202688 52.0739856,60.6735981 C53.7489412,58.3626266 55.3679484,56.0097009 56.9694717,53.6357983 C54.9751077,52.9363969 52.8761732,52.5817086 50.7626946,52.5869458 C40.4475046,52.5888764 32.0864148,60.9500941 32.086415,71.2635115 C32.0883455,81.5755633 40.4488701,89.9346508 50.7626946,89.936581 C55.718697,89.9375089 60.4719302,87.9692548 63.9760251,84.465106 C67.4801204,80.9609575 69.4478236,76.2081735 69.4459679,71.253023 C69.4512179,69.1410474 69.0964623,67.0436205 68.3969351,65.0508089 C66.0284524,66.5285256 63.6529758,67.9712801 61.270506,69.3790733 C61.381515,69.9975659 61.4376816,70.624651 61.4383512,71.253023 C61.4364203,77.1389231 56.6635941,81.9093641 50.7766817,81.9093637 C44.8903356,81.9093637 40.118509,77.1383574 40.118509,71.253023 C40.1185087,65.3671225 44.8897698,60.5951167 50.7766817,60.5931861 L50.7557011,60.5931861 Z M50.7557011,28.5227748 C27.1539791,28.5266353 8.02196818,47.6553577 8.01810697,71.253023 C8.02389861,94.8493226 27.1553444,113.975915 50.7557011,113.979775 C74.3568573,113.977845 93.4894334,94.8501222 93.4932952,71.253023 C93.5032379,64.1991834 91.7584339,57.2536067 88.4159767,51.0416366 C90.5513413,49.349488 92.6400819,47.6083929 94.682199,45.8183514 C99.1672944,53.543945 101.52374,62.3202849 101.511402,71.253023 C101.507541,99.2782052 78.7857012,121.996139 50.7557011,122 C22.725701,121.996139 0.00386141349,99.2782052 0,71.253023 C-0.00386284241,43.2218137 22.7196733,20.4943572 50.7557011,20.4885651 C59.351209,20.4818323 67.8062507,22.6683334 75.3205513,26.8411147 L74.9079317,27.3690371 C73.3868342,29.3233988 71.9181884,31.3197146 70.4845103,33.3405036 C64.3930188,30.1682558 57.6239423,28.5176624 50.7557011,28.5297671 L50.7557011,28.5227748 Z" id="Shape" fill="#F06D22"></path>
                        </g>
                    </g>
                </g>
            </g>
        </g>
    </g>
</svg>