<?xml version="1.0" encoding="UTF-8"?>
<svg width="596px" height="318px" viewBox="0 0 596 318" version="1.1" xmlns="http://www.w3.org/2000/svg" xmlns:xlink="http://www.w3.org/1999/xlink">
    <!-- Generator: Sketch 53.2 (72643) - https://sketchapp.com -->
    <title>Mask</title>
    <desc>Created with Sketch.</desc>
    <defs>
        <path d="M619.767149,221.033925 C619.713253,222.132024 619.659357,223.231973 619.5855,224.34671 C619.531604,225.496572 619.441777,226.646434 619.369916,227.794448 C619.206231,230.025772 619.008612,232.273733 618.771071,234.554971 C618.663279,235.621644 618.55349,236.686468 618.427733,237.75314 C618.301975,238.819813 618.174222,239.917913 618.028503,240.982737 C617.974607,241.450446 617.920711,241.907063 617.848849,242.348891 C617.649234,243.864786 617.413689,245.378833 617.162174,246.878091 C617.03442,247.695195 616.890697,248.527089 616.727013,249.325707 C616.58329,250.159449 616.437571,250.974705 616.275883,251.808448 C616.241477,251.929751 616.217448,252.053377 616.204022,252.178178 C615.91458,253.592397 615.625138,255.008466 615.299766,256.407896 C614.938463,258.00698 614.559194,259.604216 614.143995,261.170025 C613.728796,262.735834 613.331562,264.301643 612.880432,265.832328 C612.409341,267.496115 611.904315,269.146962 611.379327,270.762685 C610.459767,273.60961 609.472339,276.401692 608.417041,279.13893 C606.687044,283.584324 604.790036,287.891685 602.726017,292.061013 C602.111203,293.308854 601.460458,294.541905 600.809713,295.774957 C599.582081,298.106108 598.280591,300.420621 596.925205,302.668583 C596.745552,302.968065 596.563902,303.250909 596.384248,303.55039 C595.15462,305.565422 593.891057,307.563816 592.591563,309.512296 C592.447841,309.71195 592.322083,309.911605 592.176364,310.111259 C589.918719,313.438834 587.551285,316.657339 585.058093,319.787108 C584.459248,320.569088 583.828465,321.336279 583.197682,322.101621 C582.45711,323.001915 581.716538,323.90036 580.956005,324.782168 C580.03578,325.84884 579.113559,326.897027 578.175368,327.924877 C577.522627,328.640306 576.855913,329.374221 576.179218,330.08965 C575.380758,330.954819 574.570321,331.8052 573.739923,332.653731 C572.909525,333.502263 572.07713,334.336005 571.246732,335.167899 C569.783554,336.600605 568.30241,338.016673 566.78334,339.419801 C565.917011,340.220267 565.030721,341.018885 564.146426,341.802714 C563.91088,342.019006 563.677331,342.235299 563.441785,342.434953 L563.42382,342.434953 C561.635269,344.001378 559.822765,345.533295 557.986307,347.030704 C557.117982,347.729495 556.251653,348.430134 555.391312,349.112287 C555.229624,349.24539 555.06594,349.378493 554.904252,349.494958 C554.071857,350.162322 553.223493,350.811199 552.373133,351.443438 C550.476791,352.892782 548.544518,354.292212 546.584299,355.673156 C544.624079,357.054099 542.627929,358.405465 540.621798,359.719857 C539.266413,360.620151 537.895058,361.501958 536.521706,362.367128 C536.481251,362.383302 536.444111,362.405815 536.411918,362.433679 C535.040563,363.284059 533.667212,364.132591 532.25793,364.966333 C530.848648,365.800076 529.421401,366.646759 527.994154,367.463863 C526.566906,368.280968 525.103728,369.096224 523.638554,369.894842 C521.598489,371.004033 519.556428,372.09289 517.478435,373.126287 L515.907465,373.924905 C515.907465,373.941543 515.887504,373.941543 515.887504,373.941543 C515.600058,374.091284 515.310617,374.241024 515.003209,374.390765 L514.995225,374.390765 C514.39638,374.706885 513.797535,375.006367 513.19869,375.315092 C512.891283,375.464833 512.56591,375.614573 512.258503,375.764314 L512.240538,375.764314 C510.444003,376.646122 508.609541,377.496502 506.78506,378.352428 C505.519501,378.934754 504.237973,379.518928 502.954448,380.067978 C502.249807,380.384098 501.545166,380.700217 500.82256,380.992304 C499.30349,381.659668 497.76845,382.308545 496.231415,382.924147 C495.744354,383.140439 495.255298,383.340093 494.750272,383.541597 C493.574539,384.024095 492.382838,384.506593 491.191136,384.955816 C489.420551,385.673093 487.630005,386.355246 485.823489,387.020761 C484.541961,387.519897 483.240471,387.987607 481.938981,388.470105 C477.856854,389.936087 473.718835,391.333668 469.562851,392.649909 C468.165546,393.115769 466.728318,393.548354 465.301071,393.982788 C464.541203,394.229275 463.782001,394.462205 463.023464,394.681578 C461.668078,395.097525 460.294727,395.496834 458.923372,395.879505 C451.280113,398.077554 443.564994,400.042671 435.831909,401.808135 C433.835759,402.259206 431.821643,402.691791 429.815512,403.124376 C427.647694,403.590236 425.461909,404.022821 423.29409,404.457254 C421.126272,404.891688 418.958453,405.289148 416.788638,405.688457 C414.618823,406.087766 412.453,406.455648 410.285181,406.821681 C407.594371,407.287542 404.90223,407.718894 402.208758,408.115738 C399.535913,408.516896 396.861072,408.899567 394.206193,409.2656 C392.868772,409.450465 391.549317,409.635331 390.213893,409.798012 C388.878468,409.960694 387.576979,410.13077 386.257524,410.280511 C383.620609,410.598479 380.981699,410.881323 378.380716,411.164167 C375.779732,411.44701 373.158787,411.679941 370.575769,411.903628 C368.316127,412.103282 366.058482,412.286299 363.818801,412.458224 C363.511394,412.491499 363.203987,412.508137 362.89658,412.524775 C360.349493,412.70964 357.820371,412.894506 355.327179,413.042398 C352.833988,413.19029 350.336804,413.308604 347.883536,413.425069 C345.840809,413.524896 343.817379,413.608086 341.813244,413.674637 C332.850531,414.007395 324.233151,414.073946 316.084867,413.924205 C313.412022,413.874292 310.791077,413.80774 308.208059,413.724551 C302.932234,413.539685 297.828079,413.34188 292.837704,413.108949 C292.332678,413.092311 291.825656,413.075674 291.32063,413.042398 C286.370178,412.809468 281.564114,412.559283 276.902439,412.291845 C273.61478,412.10698 270.398982,411.909174 267.23708,411.692881 C262.829581,411.409421 258.547839,411.101312 254.391855,410.768555 C253.633318,410.718641 252.892746,410.65209 252.132213,410.567052 C249.585126,410.367397 247.091935,410.151105 244.652639,409.918175 C243.225392,409.80171 241.798145,409.668607 240.388863,409.518866 C237.698053,409.269298 235.041177,408.986454 232.440194,408.70361 C193.431431,404.440616 165.030208,397.911175 139.916645,388.752949 C139.880715,388.736311 139.862749,388.736311 139.844784,388.719673 C137.676965,387.921055 135.509146,387.103951 133.377258,386.272057 C129.113482,384.623059 124.939532,382.874233 120.801513,381.042218 C120.787872,381.040527 120.775228,381.034672 120.765582,381.02558 C117.656912,379.661274 114.567537,378.243974 111.497458,376.773679 C108.263695,375.242994 105.065863,373.660547 101.915938,372.061463 C100.650379,371.412586 99.4047814,370.778498 98.1571876,370.129621 C96.9095939,369.480744 95.7019231,368.81338 94.4722948,368.164503 C92.6298483,367.182868 90.8233326,366.166109 89.0347822,365.151199 C87.2462318,364.136288 85.5115774,363.086254 83.7769231,362.052857 C82.0422688,361.01946 80.3615105,359.937998 78.6807522,358.856536 C75.3391971,356.691764 72.1413648,354.477077 69.06929,352.162564 C68.0572419,351.378735 67.07314,350.613393 66.089038,349.829564 C63.631112,347.882317 61.2823089,345.862355 59.0426286,343.769681 C55.5174808,340.518499 52.273104,337.016271 49.3393435,333.295214 C49.3233743,333.278576 49.3393435,333.278576 49.3393435,333.278576 C48.7644523,332.539115 48.2041995,331.799654 47.6585852,331.060193 C47.6226545,331.012128 47.5907161,330.960365 47.5527892,330.9123 C47.0431056,330.209812 46.5480604,329.501162 46.0676536,328.78635 C46.0277306,328.729041 45.9917999,328.668036 45.9518769,328.610728 C45.4767932,327.89838 45.0150172,327.181103 44.5665488,326.458896 C44.5346104,326.405285 44.502672,326.351674 44.4687375,326.298063 C44.0176076,325.558602 43.5804507,324.819141 43.1572669,324.07968 L43.091394,323.961366 C42.6575641,323.192326 42.2403687,322.41466 41.8398079,321.628366 L41.8158541,321.580301 C37.7097736,313.523872 35.2884437,304.67622 35.012975,294.843236 C34.995675,293.827709 34.995675,292.812183 35.012975,291.796656 C35.0100239,291.646108 35.0160215,291.495523 35.0309403,291.345585 L35.0309403,291.332644 C35.0868325,288.901666 35.2824552,286.409682 35.6018392,283.858541 C35.6417622,283.542421 35.6836814,283.226302 35.7275967,282.908333 C35.9431809,281.33513 36.1926996,279.747137 36.5120836,278.12402 C36.5480143,277.907728 36.583945,277.691435 36.6398372,277.475143 C37.6411106,272.590685 39.0111714,267.777301 40.7399293,263.07044 C41.3387743,261.388166 42.0054884,259.689254 42.7101293,257.975553 C42.7260609,257.922077 42.7502656,257.871018 42.7819907,257.823964 C43.1253285,257.141811 43.4686663,256.476296 43.8299695,255.790446 C43.8498849,255.760089 43.8621655,255.72597 43.8659002,255.690618 C52.2317648,240.104627 64.9871632,226.232336 75.4469892,218.3238 C76.7664443,217.323678 78.0300073,216.425233 79.2596357,215.641404 C79.3107757,215.5913 79.3726448,215.551633 79.4412853,215.524939 C79.5686274,215.470844 79.6891272,215.403886 79.8005923,215.325285 C81.0661514,214.585824 82.3955873,213.846362 83.7409924,213.077323 C83.8128538,213.044047 83.8667499,213.010771 83.9406074,212.977496 C84.2659799,212.79263 84.6093177,212.594825 84.9526554,212.411808 C85.4596775,212.112326 86.0006342,211.827634 86.5256216,211.528152 C93.2825894,207.782781 100.923852,203.785994 109.197893,199.672742 C110.283799,199.118146 111.393658,198.56355 112.487548,198.040381 C113.643319,197.458056 114.819052,196.890519 116.010753,196.308193 C117.420035,195.642678 118.847282,194.942039 120.292495,194.259886 L121.973253,193.461268 C125.278878,191.894843 128.65104,190.329034 132.089741,188.763841 C133.047893,188.331257 133.98808,187.91531 134.944236,187.482725 C145.767361,182.585644 157.131443,177.756963 168.641244,173.227763 C170.93482,172.329318 173.232389,171.429024 175.541934,170.547217 C182.462586,167.914735 189.417173,165.400567 196.301894,163.069416 C197.713172,162.603556 199.096504,162.14509 200.511775,161.669986 C203.693638,160.6218 206.835578,159.621679 209.961549,158.67332 C211.191177,158.303589 212.400844,157.933859 213.610511,157.564128 C215.508849,157.009532 217.369261,156.482666 219.247638,155.950254 C222.862666,154.950133 226.433778,154.001774 229.945006,153.151394 C232.056933,152.636236 234.140248,152.153738 236.194952,151.703899 C238.290909,151.23619 240.368901,150.803605 242.410963,150.409842 C245.970098,149.727689 249.511268,148.893947 253.070404,147.92895 C253.972664,147.69602 254.866939,147.446452 255.745245,147.180246 C256.623551,146.91404 257.54178,146.679261 258.41809,146.396417 C259.2944,146.113573 260.214625,145.864005 261.092931,145.564523 C261.971237,145.265041 262.889466,144.996987 263.765775,144.697505 C264.642085,144.398023 265.56231,144.098541 266.440616,143.773179 C268.229167,143.156961 270.017717,142.507468 271.806268,141.824698 C273.602803,141.159183 275.399338,140.458544 277.195873,139.726478 C279.591253,138.802151 281.948706,137.811273 284.332109,136.796363 C285.433984,136.312016 286.55582,135.829517 287.67566,135.330381 C287.713435,135.302069 287.755902,135.279596 287.801418,135.26383 C289.210699,134.64638 290.619981,133.997503 292.047229,133.348625 C292.823731,132.99923 293.620195,132.649835 294.396697,132.281953 C294.702108,132.132212 295.02748,131.999109 295.334888,131.83273 C298.100221,130.568252 300.876865,129.258173 303.664822,127.902494 C304.694835,127.403358 305.742814,126.887584 306.772827,126.388448 C308.768977,125.421602 310.765127,124.439968 312.761277,123.430603 C323.314922,118.219251 334.046224,112.708417 345.084934,107.293713 C345.410306,107.143972 345.717713,106.994231 346.043086,106.84449 C347.542194,106.105029 349.059268,105.378509 350.576342,104.646442 C352.420785,103.747997 354.283858,102.860027 356.165562,101.982534 C358.26152,100.982412 360.357477,100.000778 362.4714,99.0505702 C363.537344,98.5680719 364.603288,98.0689356 365.687198,97.5864372 C369.843182,95.7045087 374.071028,93.8724938 378.316839,92.0903925 C379.382783,91.6411698 380.448727,91.2085851 381.532637,90.7593625 C382.616546,90.3101398 383.68249,89.8923443 384.748434,89.4763974 C385.725217,89.0770884 386.700669,88.6938011 387.67479,88.3265354 C391.505402,86.8476132 395.38991,85.4130586 399.310348,84.0635421 C401.262583,83.3813892 403.212822,82.7325121 405.183022,82.0984242 C406.518446,81.6658394 407.855866,81.2332546 409.211252,80.8339456 C410.095547,80.5511018 411.007787,80.2793498 411.886093,80.0168411 C413.023899,79.6840836 414.143739,79.367964 415.279548,79.0352065 C419.671078,77.7855172 424.096543,76.6541417 428.595865,75.6373827 C429.91532,75.3379009 431.232779,75.055057 432.570199,74.788851 C433.743936,74.5392829 434.919668,74.3063526 436.093404,74.0734224 C438.460838,73.6057132 440.844241,73.1897664 443.22964,72.8070952 C444.42733,72.62223 445.62502,72.4244241 446.842672,72.2524994 C451.667366,71.55186 456.545957,71.0028101 461.514374,70.620139 C463.682193,70.4537602 465.850012,70.3206572 468.053762,70.2374679 C470.892287,70.087727 473.764747,70.0211755 476.653176,70.0045376 C481.459905,69.9712619 486.248669,70.1210027 490.963575,70.4537602 C491.704147,70.5036739 492.444718,70.5535875 493.15934,70.620139 C495.754335,70.8197935 498.34933,71.0859995 500.910391,71.4021191 C503.006348,71.6683251 505.08434,71.9684231 507.144367,72.302413 C508.300138,72.4872783 509.437943,72.6721436 510.575749,72.8847386 C511.641693,73.0843931 512.689672,73.2840477 513.755616,73.50034 C515.751766,73.899649 517.747916,74.3340824 519.718116,74.8165808 C520.748129,75.0661489 521.778143,75.3157171 522.808156,75.5985609 C525.878235,76.3996438 528.901737,77.2937756 531.878662,78.2809561 C532.876737,78.5970758 533.864831,78.9464711 534.840948,79.2958665 C535.363939,79.4807318 535.888927,79.6655971 536.411918,79.8615543 C537.010763,80.0778467 537.609608,80.2959877 538.208453,80.5289179 C539.182574,80.8986485 540.158692,81.268379 541.116844,81.6769313 C542.074996,82.0854836 543.049117,82.477398 544.007269,82.8933448 C544.965421,83.3092917 545.903611,83.7252386 546.843798,84.1578234 C548.74014,85.020528 550.603214,85.9312976 552.433018,86.8901322 C553.353243,87.3726306 554.275464,87.8551289 555.17972,88.3542652 C556.083976,88.8534014 556.976255,89.3543863 557.870531,89.8867984 C560.545372,91.4359694 563.158997,93.0843515 565.711408,94.8319446 C567.410131,95.9818066 569.072924,97.1982201 570.717752,98.4460608 C571.530185,99.0635108 572.342618,99.6957501 573.137086,100.344627 C575.532466,102.276469 577.889919,104.308139 580.147564,106.445181 C583.187853,109.312455 586.064236,112.324938 588.764944,115.470304 C590.12033,117.069389 591.439785,118.701749 592.739279,120.384023 C594.672883,122.915445 596.515994,125.534986 598.268614,128.242646 C609.940103,146.37793 617.5115,168.975862 619.479704,196.319285 C619.569531,197.552337 619.661354,198.78354 619.71525,200.049867 L619.769146,200.848485 C619.823042,202.081536 619.858972,203.329377 619.894903,204.595704 L619.894903,204.795358 C620.074557,210.041835 620.018664,215.45469 619.767149,221.033925 Z" id="path-1"></path>
    </defs>
    <g id="Page-1" stroke="none" stroke-width="1" fill="none" fill-rule="evenodd">
        <g id="TutorEye---Landing-Page-2" transform="translate(-670.000000, -1960.000000)">
            <g id="Group-24" transform="translate(640.000000, 1853.000000)">
                <mask id="mask-2" fill="white">
                    <use xlink:href="#path-1"></use>
                </mask>
                <use id="Mask" fill="#5BBA47" transform="translate(327.500000, 242.000000) scale(-1, 1) rotate(15.000000) translate(-327.500000, -242.000000) " xlink:href="#path-1"></use>
            </g>
        </g>
    </g>
</svg>