<?xml version="1.0" encoding="UTF-8"?>
<svg width="125px" height="121px" viewBox="0 0 125 121" version="1.1" xmlns="http://www.w3.org/2000/svg" xmlns:xlink="http://www.w3.org/1999/xlink">
    <!-- Generator: Sketch 53.2 (72643) - https://sketchapp.com -->
    <title>Group 22</title>
    <desc>Created with Sketch.</desc>
    <g id="Page-1" stroke="none" stroke-width="1" fill="none" fill-rule="evenodd">
        <g id="TutorEye---Landing-Page-2" transform="translate(-930.000000, -2544.000000)">
            <g id="Group-37" transform="translate(-18.000000, 1006.000000)">
                <g id="Group-12" transform="translate(176.000000, 1407.000000)">
                    <g id="Group-31" transform="translate(770.000000, 131.000000)">
                        <g id="Group-22" transform="translate(2.000000, 0.000000)">
                            <path d="M41.2606116,121 C79.998558,121 125,97.3548173 125,58.5588779 C125,19.7629384 95.5450579,0 56.8071115,0 C18.0691651,0 0,19.7629384 0,58.5588779 C0,97.3548173 2.52266516,121 41.2606116,121 Z" id="Oval-Copy-2" fill="#F06D22"></path>
                            <g id="contract-(3)" transform="translate(37.000000, 30.000000)" fill-rule="nonzero">
                                <path d="M45.6460547,10.2447656 C45.6460547,8.83710938 45.0966797,7.51195312 44.1010547,6.51632812 L39.1297266,1.545 C38.1479297,0.563085938 36.7542188,0 35.3671875,0 L35.0650781,0 L35.0650781,10.546875 L45.6461719,10.546875 L45.6460547,10.2447656 L45.6460547,10.2447656 Z" id="Path" fill="#FFFBDD"></path>
                                <path d="M32.1019922,36.2738672 C32.4384375,35.2524609 33.0255469,34.3014844 33.7911328,33.5307422 L45.6929297,21.676875 L45.6929297,14.0625 L33.3413672,14.0625 C32.3697656,14.0625 31.640625,13.2762891 31.640625,12.3046875 L31.640625,0 L5.2734375,0 C2.36554688,0 0,2.36554688 0,5.2734375 L0,54.7265625 C0,57.6344531 2.36554688,60 5.2734375,60 L40.3726172,60 C43.2805078,60 45.6929297,57.6344531 45.6929297,54.7265625 L45.6929297,41.6073047 L43.7612109,43.4921484 C42.9785156,44.2680469 42.061875,44.8327734 41.0283984,45.1778906 L35.4391406,47.0438672 L34.5876563,47.0902734 C33.18,47.0902734 31.8479297,46.4053125 31.0205859,45.2586328 C30.2000391,44.1171094 29.9769141,42.6373828 30.4231641,41.3001563 L32.1019922,36.2738672 Z M8.7890625,31.640625 L26.3101172,31.640625 C27.2817188,31.640625 28.0679297,32.4268359 28.0679297,33.3984375 C28.0679297,34.3700391 27.2817188,35.15625 26.3101172,35.15625 L8.7890625,35.15625 C7.81746094,35.15625 7.03125,34.3700391 7.03125,33.3984375 C7.03125,32.4268359 7.81746094,31.640625 8.7890625,31.640625 Z M7.03125,26.3671875 C7.03125,25.3955859 7.81746094,24.609375 8.7890625,24.609375 L26.3101172,24.609375 C27.2817188,24.609375 28.0679297,25.3955859 28.0679297,26.3671875 C28.0679297,27.3387891 27.2817188,28.125 26.3101172,28.125 L8.7890625,28.125 C7.81746094,28.125 7.03125,27.3387891 7.03125,26.3671875 Z M7.03125,40.4296875 C7.03125,39.4580859 7.81746094,38.671875 8.7890625,38.671875 L26.3101172,38.671875 C27.2817188,38.671875 28.0679297,39.4580859 28.0679297,40.4296875 C28.0679297,41.4012891 27.2817188,42.1875 26.3101172,42.1875 L8.7890625,42.1875 C7.81746094,42.1875 7.03125,41.4012891 7.03125,40.4296875 Z M33.3413672,49.21875 C34.3129688,49.21875 35.0991797,50.0049609 35.0991797,50.9765625 C35.0991797,51.9481641 34.3130859,52.734375 33.3413672,52.734375 L22.7944922,52.734375 C21.8228906,52.734375 21.0366797,51.9481641 21.0366797,50.9765625 C21.0366797,50.0049609 21.8228906,49.21875 22.7944922,49.21875 L33.3413672,49.21875 Z M8.7890625,21.09375 C7.81746094,21.09375 7.03125,20.3075391 7.03125,19.3359375 C7.03125,18.3643359 7.81746094,17.578125 8.7890625,17.578125 L33.3413672,17.578125 C34.3129688,17.578125 35.0991797,18.3643359 35.0991797,19.3359375 C35.0991797,20.3075391 34.3129688,21.09375 33.3413672,21.09375 L8.7890625,21.09375 Z" id="Shape" fill="#FFFBDD"></path>
                                <path d="M35.2864453,37.8290625 L33.7571484,42.4170703 C33.5279297,43.104375 34.1819531,43.7581641 34.8692578,43.5285938 L39.4545703,41.9971875 L35.2864453,37.8290625 Z" id="Path" fill="#FFFBDD"></path>
                                <path d="M48.9385547,23.3562891 L37.3617188,34.933125 L42.3544922,39.9258984 C44.9710547,37.3088672 50.0622656,32.2169531 53.9307422,28.3484766 L48.9385547,23.3562891 Z" id="Path" fill="#FFFBDD"></path>
                                <path d="M58.9669922,18.3145312 C58.3490625,17.6930859 57.4392188,17.3377734 56.4744141,17.3377734 C55.5096094,17.3377734 54.5998828,17.6930859 53.9784375,18.3162891 L51.4241016,20.870625 L56.4160547,25.8625781 C57.8144531,24.4640625 58.7810156,23.4975 58.970625,23.3080078 C60.3437109,21.9328125 60.3435938,19.6928906 58.9669922,18.3145312 Z" id="Path" fill="#FFFBDD"></path>
                                <g id="Group" transform="translate(58.828125, 23.203125)" fill="#000000">
                                    <path d="M0.291599993,0.215039995 C0.291839993,0.215039995 0.291839993,0.214799995 0.292079993,0.214559995 C0.301199993,0.205439995 0.305279993,0.201359995 0.312719993,0.193919996 C0.305279993,0.201599995 0.301199993,0.205679995 0.291599993,0.215039995 Z" id="Path"></path>
                                    <path d="M0.312719993,0.193919996 C0.324239993,0.182399996 0.337679992,0.168959996 0.344639992,0.161999996 C0.337439992,0.169199996 0.324239993,0.182399996 0.312719993,0.193919996 Z" id="Path"></path>
                                    <path d="M0.344639992,0.161999996 C0.367919992,0.138719997 0.368399992,0.138239997 0.344639992,0.161999996 L0.344639992,0.161999996 Z" id="Path"></path>
                                </g>
                            </g>
                        </g>
                    </g>
                </g>
            </g>
        </g>
    </g>
</svg>