<?xml version="1.0" encoding="UTF-8"?>
<svg width="14px" height="12px" viewBox="0 0 14 12" version="1.1" xmlns="http://www.w3.org/2000/svg" xmlns:xlink="http://www.w3.org/1999/xlink">
    <!-- Generator: Sketch 53.2 (72643) - https://sketchapp.com -->
    <title>login</title>
    <desc>Created with Sketch.</desc>
    <g id="Symbols" stroke="none" stroke-width="1" fill="none" fill-rule="evenodd">
        <g id="Nav" transform="translate(-1120.000000, -30.000000)" fill="#FFFFFF" fill-rule="nonzero">
            <g id="Group-15">
                <g id="Group-6" transform="translate(1120.000000, 29.000000)">
                    <g id="login" transform="translate(0.000000, 1.000000)">
                        <g id="Group" transform="translate(0.273038, 0.000000)">
                            <g>
                                <path d="M12.559727,0.982935154 L7.98634812,0.0682593857 C7.80887372,0.0273037543 7.63139932,0.0819112628 7.49488055,0.19112628 C7.35836177,0.300341297 7.27645051,0.4778157 7.27645051,0.641638225 L7.27645051,0.969283276 L4.88737201,0.969283276 C4.55972696,0.969283276 4.3003413,1.22866894 4.3003413,1.55631399 L4.3003413,2.73037543 C4.3003413,3.05802048 4.55972696,3.31740614 4.88737201,3.31740614 C5.21501706,3.31740614 5.47440273,3.05802048 5.47440273,2.73037543 L5.47440273,2.15699659 L7.26279863,2.15699659 L7.26279863,9.58361775 L5.47440273,9.58361775 L5.47440273,9.01023891 C5.47440273,8.68259386 5.21501706,8.42320819 4.88737201,8.42320819 C4.55972696,8.42320819 4.3003413,8.68259386 4.3003413,9.01023891 L4.3003413,10.1706485 C4.3003413,10.4982935 4.55972696,10.7576792 4.88737201,10.7576792 L7.27645051,10.7576792 L7.27645051,11.0853242 C7.27645051,11.2627986 7.35836177,11.4266212 7.49488055,11.5358362 C7.60409556,11.6177474 7.74061433,11.6723549 7.86348123,11.6723549 C7.90443686,11.6723549 7.94539249,11.6723549 7.98634812,11.6587031 L12.559727,10.7576792 C12.8327645,10.7030717 13.0375427,10.4573379 13.0375427,10.1843003 L13.0375427,1.55631399 C13.0375427,1.28327645 12.8327645,1.03754266 12.559727,0.982935154 Z M9.06484642,6.49829352 C8.72354949,6.49829352 8.43686007,6.2116041 8.43686007,5.87030717 C8.43686007,5.52901024 8.72354949,5.24232082 9.06484642,5.24232082 C9.40614334,5.24232082 9.69283276,5.52901024 9.69283276,5.87030717 C9.69283276,6.2116041 9.40614334,6.49829352 9.06484642,6.49829352 Z" id="Shape"></path>
                                <path d="M6.02047782,5.87030717 C6.02047782,5.72013652 5.95221843,5.56996587 5.84300341,5.44709898 L4.28668942,3.89078498 C4.05460751,3.65870307 3.68600683,3.65870307 3.45392491,3.89078498 C3.221843,4.12286689 3.221843,4.49146758 3.45392491,4.72354949 L4.01365188,5.26962457 L0.655290102,5.26962457 C0.327645051,5.26962457 0.0682593857,5.52901024 0.0682593857,5.85665529 C0.0682593857,6.18430034 0.327645051,6.44368601 0.655290102,6.44368601 L4,6.44368601 L3.45392491,6.98976109 C3.221843,7.221843 3.221843,7.59044369 3.45392491,7.8225256 C3.56313993,7.93174061 3.72696246,8 3.87713311,8 C4.02730375,8 4.1774744,7.94539249 4.3003413,7.8225256 L5.85665529,6.2662116 C5.95221843,6.17064846 6.02047782,6.02047782 6.02047782,5.87030717 Z" id="Path"></path>
                            </g>
                        </g>
                    </g>
                </g>
            </g>
        </g>
    </g>
</svg>