<?xml version="1.0" encoding="UTF-8"?>
<svg width="139px" height="154px" viewBox="0 0 139 154" version="1.1" xmlns="http://www.w3.org/2000/svg" xmlns:xlink="http://www.w3.org/1999/xlink">
    <!-- Generator: Sketch 53.2 (72643) - https://sketchapp.com -->
    <title>Group 16</title>
    <desc>Created with Sketch.</desc>
    <g id="Page-1" stroke="none" stroke-width="1" fill="none" fill-rule="evenodd">
        <g id="TutorEye---Landing-Page-2" transform="translate(-679.000000, -1640.000000)" fill="#FFFFFF">
            <g id="neonbrand-y_6rqStQBYQ-unsplash" transform="translate(177.000000, 1317.000000)">
                <g id="Group-17" transform="translate(501.719298, 322.803379)">
                    <g id="Group-16" transform="translate(0.769693, 0.000000)">
                        <path d="M86.3657509,17.8418912 L143.592127,116.95822 C149.039196,126.392568 145.806869,138.456341 136.37252,143.903411 C133.373865,145.634732 129.972299,146.5462 126.509728,146.5462 L12.0569763,146.5462 C1.16305596,146.5462 -7.66821137,137.714933 -7.66821137,126.821012 C-7.66821137,123.358441 -6.75674321,119.956874 -5.02542264,116.95822 L52.2009531,17.8418912 C57.6480229,8.40754275 69.711796,5.17521484 79.1461444,10.6222847 C82.144597,12.3534886 84.634547,14.8434386 86.3657509,17.8418912 Z" id="Triangle-Copy" opacity="0.627032192" transform="translate(69.284999, 77.261201) rotate(-270.000000) translate(-69.284999, -77.261201) "></path>
                        <path d="M43.4518804,94.1002928 C42.8749381,94.1002928 42.2979958,93.9318886 41.7210535,93.651215 C40.6248632,93.0337329 39.9902267,91.9110383 39.9902267,90.7322089 L39.9902267,59.1844893 C39.9902267,57.9495252 40.6825574,56.8268305 41.7210535,56.2654832 C42.8172439,55.6480011 44.1442111,55.7041359 45.1827072,56.3216179 L72.1836059,72.0954777 C73.222102,72.7129598 73.8567385,73.7795197 73.8567385,74.9583491 C73.8567385,76.1371785 73.222102,77.2037384 72.1836059,77.8212204 L45.2404014,93.5950802 C44.7211534,93.9318886 44.0865169,94.1002928 43.4518804,94.1002928 Z" id="Path" fill-rule="nonzero"></path>
                    </g>
                </g>
            </g>
        </g>
    </g>
</svg>