<?xml version="1.0" encoding="UTF-8"?>
<svg width="125px" height="121px" viewBox="0 0 125 121" version="1.1" xmlns="http://www.w3.org/2000/svg" xmlns:xlink="http://www.w3.org/1999/xlink">
    <!-- Generator: Sketch 53.2 (72643) - https://sketchapp.com -->
    <title>Group 29</title>
    <desc>Created with Sketch.</desc>
    <g id="Page-1" stroke="none" stroke-width="1" fill="none" fill-rule="evenodd">
        <g id="TutorEye---Landing-Page-2" transform="translate(-164.000000, -3476.000000)">
            <g id="Group-37" transform="translate(-18.000000, 1006.000000)">
                <g id="Group-12" transform="translate(176.000000, 1407.000000)">
                    <g id="Group-7" transform="translate(4.000000, 1063.000000)">
                        <g id="Group-35">
                            <g id="Group-29" transform="translate(2.000000, 0.000000)">
                                <path d="M41.2606116,121 C79.998558,121 125,97.3548173 125,58.5588779 C125,19.7629384 95.5450579,0 56.8071115,0 C18.0691651,0 0,19.7629384 0,58.5588779 C0,97.3548173 2.52266516,121 41.2606116,121 Z" id="Oval-Copy-3" fill="#F06D22"></path>
                                <g id="premium-badge" transform="translate(30.000000, 30.000000)" fill="#FFFBDD" fill-rule="nonzero">
                                    <path d="M53.604,52.5432453 C53.604,52.5432453 46.6296792,40.7468679 45.3786792,38.6311806 C46.8020377,38.2038652 48.318283,37.8265175 48.948283,36.755973 C49.9982264,34.9721779 48.129283,32.0459784 48.6200377,30.1340054 C49.125566,28.1662156 52.1098302,26.4634717 52.1098302,24.4632615 C52.1098302,22.5145229 49.0245283,20.237903 48.5186604,18.2816442 C48.0245094,16.3700054 49.8878491,13.4406307 48.8345094,11.6590081 C47.7811698,9.87721833 44.2726981,10.0236119 42.8284528,8.65593531 C41.342434,7.24848518 41.3470189,3.80489488 39.5546604,2.86169272 C37.755,1.91498113 34.8301698,3.82829111 32.832,3.37507278 C30.8565849,2.92703504 29.0917358,0 27.0283585,0 C24.9344151,0 21.6039057,3.32025876 21.081566,3.43974663 C19.0844151,3.89664151 16.1558491,1.98801078 14.3580566,2.93873315 C12.5673962,3.88511051 12.578434,7.32903504 11.0951321,8.7388248 C9.65326415,10.1090081 6.14462264,9.96896496 5.09450943,11.7527601 C4.04456604,13.536221 5.91350943,16.461752 5.42292453,18.3747278 C4.93098113,20.2925499 1.84279245,22.2357736 1.84279245,24.4537358 C1.84279245,26.4541132 4.8345283,28.1515094 5.34311321,30.1182965 C5.83743396,32.0299353 3.97409434,34.9589757 5.02743396,36.7412668 C5.60088679,37.7113747 6.90198113,38.1096119 8.20137736,38.4924744 C8.35301887,38.5370943 8.63983019,38.7040431 8.44556604,38.9826253 C7.55660377,40.4926846 0.401603774,52.645186 0.401603774,52.645186 C-0.167603774,53.6117844 0.294622642,54.440345 1.42845283,54.4873046 L6.97839623,54.7150836 C8.11222642,54.7620431 9.53456604,55.5728895 10.1397736,56.5175957 L13.101283,61.1423612 C13.7064906,62.0870674 14.6667736,62.0693531 15.2358113,61.1029218 C15.2358113,61.1029218 23.5220943,47.0240755 23.5254906,47.0200647 C23.6917358,46.8288841 23.8588302,46.8681563 23.9388113,46.9350027 C24.845434,47.6947116 26.1093396,48.4525822 27.1642075,48.4525822 C28.1986981,48.4525822 29.1566038,47.7391644 30.1041509,46.9435256 C30.1812453,46.8788518 30.3688868,46.7463288 30.5060943,47.0214016 C30.5083019,47.0257466 38.7854151,61.0275526 38.7854151,61.0275526 C39.3559811,61.992814 40.316434,62.0091914 40.9197736,61.0633154 L43.8729623,56.433035 C44.4764717,55.4876604 45.897283,54.6736388 47.0311132,54.6250081 L52.5805472,54.387035 C53.7138679,54.3380701 54.174566,53.5083396 53.604,52.5432453 Z M36.2003774,39.879035 C30.0640755,43.3923127 22.6985094,43.0158005 17.0726604,39.5235795 C8.82916981,34.3271105 6.11677358,23.5775472 11.0723774,15.1600863 C16.0845283,6.645531 27.1023962,3.64112129 35.8322264,8.32019946 C35.8780755,8.3447655 35.9234151,8.37016712 35.9689245,8.3952345 C36.0336226,8.43049596 36.0981509,8.46625876 36.1625094,8.5023558 C38.855717,10.0304636 41.1911321,12.2482588 42.863434,15.0770296 C47.9744151,23.722938 44.985566,34.8491806 36.2003774,39.879035 Z" id="Shape"></path>
                                    <path d="M34.7970566,11.0468625 C34.7715849,11.0323235 34.7457736,11.0187871 34.7203019,11.0044151 C30.0569434,8.34827493 24.1132075,8.15408625 19.1317925,11.0062534 C11.739566,15.2386307 9.22415094,24.6002965 13.5247925,31.8750189 C14.8370943,34.0949865 16.6353962,35.8670836 18.7101509,37.1388356 C18.8865849,37.2487978 19.0650566,37.3569218 19.247434,37.4608679 C26.6476415,41.6800431 36.1552075,39.1876765 40.4422642,31.9052668 C44.7291509,24.6225229 42.1972642,15.2660377 34.7970566,11.0468625 Z M36.6483396,22.9523666 L34.0571887,25.4378814 C33.2546604,26.2076173 32.7530377,27.727035 32.942717,28.814124 L33.5543774,32.3237251 C33.7438868,33.410814 33.0873962,33.8802426 32.0953585,33.3670296 L28.8925472,31.7099084 C27.9005094,31.1966954 26.277283,31.1966954 25.2852453,31.7099084 L22.0826038,33.3670296 C21.090566,33.8802426 20.4339057,33.410814 20.6234151,32.3237251 L21.2350755,28.814124 C21.4245849,27.727035 20.9229623,26.2076173 20.120434,25.4378814 L17.5294528,22.9523666 C16.7267547,22.1826307 16.9777358,21.4229218 18.0867736,21.2641617 L21.6674151,20.7521186 C22.7764528,20.5935256 24.0897736,19.6545013 24.5857925,18.6655094 L26.1871132,15.4724259 C26.6831321,14.483434 27.4948302,14.483434 27.9906792,15.4724259 L29.5921698,18.6655094 C30.0881887,19.6545013 31.4013396,20.5935256 32.5105472,20.7521186 L36.0911887,21.2641617 C37.2000566,21.4229218 37.4508679,22.1826307 36.6483396,22.9523666 Z" id="Shape"></path>
                                </g>
                            </g>
                        </g>
                    </g>
                </g>
            </g>
        </g>
    </g>
</svg>