<?xml version="1.0" encoding="UTF-8"?>
<svg width="125px" height="121px" viewBox="0 0 125 121" version="1.1" xmlns="http://www.w3.org/2000/svg" xmlns:xlink="http://www.w3.org/1999/xlink">
    <!-- Generator: Sketch 53.2 (72643) - https://sketchapp.com -->
    <title>Group 5</title>
    <desc>Created with Sketch.</desc>
    <g id="Page-1" stroke="none" stroke-width="1" fill="none" fill-rule="evenodd">
        <g id="TutorEye---Landing-Page-2" transform="translate(-555.000000, -3026.000000)">
            <g id="Group-37" transform="translate(-18.000000, 1006.000000)">
                <g id="Group-12" transform="translate(176.000000, 1407.000000)">
                    <g id="Group-6" transform="translate(395.000000, 613.000000)">
                        <g id="Group-5" transform="translate(2.000000, 0.000000)">
                            <path d="M41.2606116,121 C79.998558,121 125,97.3548173 125,58.5588779 C125,19.7629384 95.5450579,0 56.8071115,0 C18.0691651,0 0,19.7629384 0,58.5588779 C0,97.3548173 2.52266516,121 41.2606116,121 Z" id="Oval-Copy-4" fill="#F06D22"></path>
                            <g id="flaticon1574319521-svg" transform="translate(33.000000, 31.000000)" fill="#FFFBDD" fill-rule="nonzero">
                                <path d="M54.9532624,13.9557161 L54.0615456,14.2354185 L49.3126793,14.6540333 L47.9713096,16.7733885 L46.9980102,16.4674054 L43.2186488,13.09596 L42.6703378,11.3426582 L41.9360944,9.47297026 L39.5607126,7.36487829 L36.7584452,6.82236842 L36.693938,8.09135344 L39.4392874,10.7419553 L40.7825544,12.3075374 L39.2723276,13.0884512 L38.0428968,12.7299067 L36.2006478,11.969642 L36.2632578,10.4997969 L33.846136,9.51614579 L33.0435909,12.972065 L30.6074965,13.5183293 L30.8484498,15.4462104 L34.0225821,16.0506677 L34.5708931,12.9701878 L37.1910227,13.353136 L38.4090699,14.058962 L40.3632578,14.058962 L41.7008329,16.7095638 L45.2468302,20.2687289 L44.9869042,21.6522229 L42.1277186,21.2918011 L37.1872281,23.7603149 L33.6298473,27.9821304 L33.1669135,29.8518184 L31.8900509,29.8518184 L29.5108746,28.7667987 L27.2,29.8518184 L27.7748727,32.2640162 L28.7804257,31.117049 L30.5486812,31.0626103 L30.4253586,33.2288954 L31.8900509,33.6531419 L33.3528459,35.2787943 L35.7415086,34.6142666 L38.4697825,35.0403903 L41.638223,35.8832516 L43.220546,36.0672169 L45.9032855,39.0801177 L51.0809348,42.0930185 L47.7322536,48.422926 L44.19764,50.0485784 L42.8562702,53.6659366 L37.7412309,57.0448908 L37.1967145,58.9934211 C50.2726978,55.8772744 60,44.2555492 60,30.3605387 C59.9962055,24.2915616 58.1368811,18.6430765 54.9532624,13.9557161 Z" id="Path"></path>
                                <path d="M33.0378106,45.6836629 L30.8794384,41.6921469 L32.8604618,37.5745434 L30.8794384,36.9836259 L28.6550321,34.7554529 L23.7270005,33.6526578 L22.0912412,30.238886 L22.0912412,32.2656954 L21.370526,32.2656954 L17.1235891,26.5221278 L17.1235891,21.8041973 L14.0105523,16.7550518 L9.06742719,17.6339005 L5.73742116,17.6339005 L4.06204135,16.538633 L6.19965996,14.8486842 L4.06770142,15.3398609 C1.49803104,19.717167 0,24.7964228 0,30.2370041 C0,46.5587478 13.2653102,59.7960526 29.6304503,59.7960526 C30.8907585,59.7960526 32.1265398,59.6850204 33.3491142,59.5382319 L33.0396973,55.9569708 C33.0396973,55.9569708 34.4,50.6387132 34.4,50.4580505 C34.3981133,50.275506 33.0378106,45.6836629 33.0378106,45.6836629 Z" id="Path"></path>
                                <path d="M11.4019789,10.367102 L16.6263645,9.60171391 L19.0344505,8.21457091 L21.7440153,9.03505124 L26.0733269,8.78320116 L27.5563783,6.33356565 L29.7191616,6.70740561 L34.9716353,6.1899324 L36.4191084,4.51355533 L38.4601766,3.08115801 L41.3476327,3.53763628 L42.4,3.37039209 C38.596872,1.48938683 34.3649324,0.401315789 29.8802,0.401315789 C20.7515693,0.401315789 12.5891691,4.77327572 7.2,11.6381579 L7.21498032,11.6381579 L11.4019789,10.367102 Z M31.1235663,3.47467376 L34.1271199,1.73730174 L36.0558357,2.90801109 L33.2638791,5.14121294 L30.5973827,5.4225767 L29.3970848,4.60406395 L31.1235663,3.47467376 Z M22.2271305,3.72849142 L23.5528886,4.30892714 L25.2887328,3.72849142 L26.2343654,5.4501228 L22.2271305,6.55590204 L20.3002873,5.37141965 C20.2984147,5.37141965 22.1840621,4.09642864 22.2271305,3.72849142 Z" id="Shape"></path>
                            </g>
                        </g>
                    </g>
                </g>
            </g>
        </g>
    </g>
</svg>