<?xml version="1.0" encoding="UTF-8"?>
<svg width="125px" height="121px" viewBox="0 0 125 121" version="1.1" xmlns="http://www.w3.org/2000/svg" xmlns:xlink="http://www.w3.org/1999/xlink">
    <!-- Generator: Sketch 53.2 (72643) - https://sketchapp.com -->
    <title>Group 32</title>
    <desc>Created with Sketch.</desc>
    <g id="Page-1" stroke="none" stroke-width="1" fill="none" fill-rule="evenodd">
        <g id="TutorEye---Landing-Page-2" transform="translate(-931.000000, -3476.000000)">
            <g id="Group-37" transform="translate(-18.000000, 1006.000000)">
                <g id="Group-12" transform="translate(176.000000, 1407.000000)">
                    <g id="Group-7" transform="translate(771.000000, 1063.000000)">
                        <g id="Group-34">
                            <g id="Group-32" transform="translate(2.000000, 0.000000)">
                                <path d="M41.2606116,121 C79.998558,121 125,97.3548173 125,58.5588779 C125,19.7629384 95.5450579,0 56.8071115,0 C18.0691651,0 0,19.7629384 0,58.5588779 C0,97.3548173 2.52266516,121 41.2606116,121 Z" id="Oval-Copy-3" fill="#F06D22"></path>
                                <g id="white-board" transform="translate(33.000000, 31.000000)" fill="#FFFBDD" fill-rule="nonzero">
                                    <path d="M54.3219512,4.12097561 L31.8439024,4.12097561 L31.8439024,1.87317073 C31.8439024,0.811707317 31.0321951,0 29.9707317,0 C28.9092683,0 28.097561,0.811707317 28.097561,1.87317073 L28.097561,4.12097561 L5.6195122,4.12097561 C4.55804878,4.12097561 3.74634146,4.93268293 3.74634146,5.99414634 L3.74634146,37.4009756 L56.195122,37.4009756 L56.195122,5.99414634 C56.195122,4.93268293 55.3834146,4.12097561 54.3219512,4.12097561 Z" id="Path"></path>
                                    <path d="M58.0682927,40.5229268 L1.87317073,40.5229268 C0.874146341,40.5229268 0,41.3970732 0,42.3960976 C0,43.457561 0.811707317,44.2692683 1.87317073,44.2692683 L26.1619512,44.2692683 L15.1102439,55.9453659 C14.4234146,56.6946341 14.4234146,57.8809756 15.1726829,58.5678049 C15.9219512,59.2546341 17.1082927,59.2546341 17.795122,58.5053659 L28.097561,47.6409756 L28.097561,58.0682927 C28.097561,59.1297561 28.9092683,59.9414634 29.9707317,59.9414634 C31.0321951,59.9414634 31.8439024,59.1297561 31.8439024,58.0682927 L31.8439024,47.6409756 L42.1463415,58.5053659 C42.8331707,59.2546341 44.0195122,59.3170732 44.7687805,58.5678049 C45.5180488,57.8809756 45.5804878,56.6946341 44.8312195,55.9453659 L33.7795122,44.2692683 L58.0682927,44.2692683 C59.1297561,44.2692683 59.9414634,43.457561 59.9414634,42.3960976 C59.9414634,41.3346341 59.1297561,40.5229268 58.0682927,40.5229268 Z" id="Path"></path>
                                </g>
                            </g>
                        </g>
                    </g>
                </g>
            </g>
        </g>
    </g>
</svg>